name C:/MyDriveSym/Projects/mobilecap/Data\Session20210820_0001\mocap\ForceDataProcessed\DJ2_forces.mot
datacolumns 28
datarows 11
range 1.33950000 1.34450000
endheader 
time	R_ground_force_vx	R_ground_force_vy	R_ground_force_vz	R_ground_force_px	R_ground_force_py	R_ground_force_pz	R_ground_torque_x	R_ground_torque_y	R_ground_torque_z	L_ground_force_vx	L_ground_force_vy	L_ground_force_vz	L_ground_force_px	L_ground_force_py	L_ground_force_pz	L_ground_torque_x	L_ground_torque_y	L_ground_torque_z	3_ground_force_vx	3_ground_force_vy	3_ground_force_vz	3_ground_force_px	3_ground_force_py	3_ground_force_pz	3_ground_torque_x	3_ground_torque_y	3_ground_torque_z	
          1.33950000	       -209.78244500	       2065.33714700	       -140.18586200	         -0.24300500	          0.00600000	         -0.46179800	          0.00000000	          0.82499200	          0.00000000	       -218.20214400	       1080.30346100	        129.14337400	         -0.20621600	          0.00600000	         -0.76171700	          0.00000000	         -0.24624500	          0.00000000	          0.00000000	          0.00000000	          0.00000000	          0.00000000	          0.00000000	          0.00000000	          0.00000000	          0.00000000	          0.00000000	
          1.34000000	       -203.42498200	       2101.01564700	       -134.63005800	         -0.24455200	          0.00600000	         -0.46247400	          0.00000000	          0.27839900	          0.00000000	       -219.15894600	       1088.91334600	        129.54197600	         -0.20727100	          0.00600000	         -0.76130400	          0.00000000	          0.04697200	          0.00000000	          0.00000000	          0.00000000	          0.00000000	          0.00000000	          0.00000000	          0.00000000	          0.00000000	          0.00000000	          0.00000000	
          1.34050000	       -197.38484700	       2134.61995000	       -128.75027900	         -0.24599400	          0.00600000	         -0.46313000	          0.00000000	         -0.26327900	          0.00000000	       -220.09609000	       1097.43246800	        129.80053900	         -0.20833000	          0.00600000	         -0.76087800	          0.00000000	          0.34789400	          0.00000000	          0.00000000	          0.00000000	          0.00000000	          0.00000000	          0.00000000	          0.00000000	          0.00000000	          0.00000000	          0.00000000	
          1.34100000	       -191.72696500	       2165.90657300	       -122.58810100	         -0.24733100	          0.00600000	         -0.46376700	          0.00000000	         -0.79840600	          0.00000000	       -220.99997000	       1105.84554400	        129.91441900	         -0.20939200	          0.00600000	         -0.76044000	          0.00000000	          0.65576600	          0.00000000	          0.00000000	          0.00000000	          0.00000000	          0.00000000	          0.00000000	          0.00000000	          0.00000000	          0.00000000	          0.00000000	
          1.34150000	       -186.51501800	       2194.64577000	       -116.18966300	         -0.24856400	          0.00600000	         -0.46438200	          0.00000000	         -1.32528400	          0.00000000	       -221.85720700	       1114.13634200	        129.88020800	         -0.21045500	          0.00600000	         -0.75998900	          0.00000000	          0.96975900	          0.00000000	          0.00000000	          0.00000000	          0.00000000	          0.00000000	          0.00000000	          0.00000000	          0.00000000	          0.00000000	          0.00000000	
          1.34200000	       -181.81140700	       2220.62656500	       -109.60580200	         -0.24969200	          0.00600000	         -0.46497600	          0.00000000	         -1.84212400	          0.00000000	       -222.65496000	       1122.28784700	        129.69555100	         -0.21151900	          0.00600000	         -0.75952600	          0.00000000	          1.28895600	          0.00000000	          0.00000000	          0.00000000	          0.00000000	          0.00000000	          0.00000000	          0.00000000	          0.00000000	          0.00000000	          0.00000000	
          1.34250000	       -177.67696300	       2243.66193200	       -102.89170100	         -0.25071800	          0.00600000	         -0.46554600	          0.00000000	         -2.34712200	          0.00000000	       -223.38129500	       1130.28225500	        129.35896300	         -0.21258300	          0.00600000	         -0.75905300	          0.00000000	          1.61234200	          0.00000000	          0.00000000	          0.00000000	          0.00000000	          0.00000000	          0.00000000	          0.00000000	          0.00000000	          0.00000000	          0.00000000	
          1.34300000	       -174.17045900	       2263.59361700	        -96.10618200	         -0.25164200	          0.00600000	         -0.46609400	          0.00000000	         -2.83857800	          0.00000000	       -224.02553200	       1138.10077100	        128.86967100	         -0.21364400	          0.00600000	         -0.75857100	          0.00000000	          1.93882200	          0.00000000	          0.00000000	          0.00000000	          0.00000000	          0.00000000	          0.00000000	          0.00000000	          0.00000000	          0.00000000	          0.00000000	
          1.34350000	       -171.34779700	       2280.29624500	        -89.31049900	         -0.25246600	          0.00600000	         -0.46661800	          0.00000000	         -3.31495600	          0.00000000	       -224.57853500	       1145.72338500	        128.22757700	         -0.21470100	          0.00600000	         -0.75808000	          0.00000000	          2.26726200	          0.00000000	          0.00000000	          0.00000000	          0.00000000	          0.00000000	          0.00000000	          0.00000000	          0.00000000	          0.00000000	          0.00000000	
          1.34400000	       -169.26082200	       2293.68043600	        -82.56658400	         -0.25319100	          0.00600000	         -0.46711800	          0.00000000	         -3.77485900	          0.00000000	       -225.03288200	       1153.12874300	        127.43334200	         -0.21575200	          0.00600000	         -0.75758300	          0.00000000	          2.59654900	          0.00000000	          0.00000000	          0.00000000	          0.00000000	          0.00000000	          0.00000000	          0.00000000	          0.00000000	          0.00000000	          0.00000000	
          1.34450000	       -167.95578900	       2303.69464000	        -75.93501600	         -0.25382000	          0.00600000	         -0.46759300	          0.00000000	         -4.21696300	          0.00000000	       -225.38292400	       1160.29413900	        126.48848600	         -0.21679700	          0.00600000	         -0.75708000	          0.00000000	          2.92565000	          0.00000000	          0.00000000	          0.00000000	          0.00000000	          0.00000000	          0.00000000	          0.00000000	          0.00000000	          0.00000000	          0.00000000	
